<?xml version='1.0' encoding='utf-8'?>
<mlt LC_NUMERIC="C" producer="main_bin" root="" version="7.33.0">
 <profile colorspace="709" description="HD 720p 30 fps" display_aspect_den="9" display_aspect_num="16" frame_rate_den="1" frame_rate_num="30" height="720" progressive="1" sample_aspect_den="1" sample_aspect_num="1" width="1280"/>
 <chain id="chain3" out="00:00:02.967">
  <property name="length">90</property>
  <property name="eof">pause</property>
  <property name="resource">footage/sample-10bit.mkv</property>
  <property name="mlt_service">avformat-novalidate</property>
  <property name="meta.media.nb_streams">2</property>
  <property name="meta.media.0.stream.type">video</property>
  <property name="meta.media.0.stream.frame_rate">50</property>
  <property name="meta.media.0.stream.sample_aspect_ratio">1</property>
  <property name="meta.media.0.codec.width">1920</property>
  <property name="meta.media.0.codec.height">1080</property>
  <property name="meta.media.0.codec.rotate">0</property>
  <property name="meta.media.0.codec.pix_fmt">yuv422p10le</property>
  <property name="meta.media.0.codec.sample_aspect_ratio">1</property>
  <property name="meta.media.0.codec.colorspace">709</property>
  <property name="meta.media.0.codec.color_trc">1</property>
  <property name="meta.media.0.codec.name">h264</property>
  <property name="meta.media.0.codec.long_name">H.264 / AVC / MPEG-4 AVC / MPEG-4 part 10</property>
  <property name="meta.media.0.codec.bit_rate">0</property>
  <property name="meta.attr.0.stream.VENDOR_ID.markup">[0][0][0][0]</property>
  <property name="meta.attr.0.stream.TIMECODE.markup">06:41:46:28</property>
  <property name="meta.attr.0.stream.ENCODER.markup">Lavc61.19.101 libx264</property>
  <property name="meta.attr.0.stream.DURATION.markup">00:00:03.000000000</property>
  <property name="meta.media.1.stream.type">audio</property>
  <property name="meta.media.1.codec.sample_fmt">fltp</property>
  <property name="meta.media.1.codec.sample_rate">48000</property>
  <property name="meta.media.1.codec.channels">1</property>
  <property name="meta.media.1.codec.layout">mono</property>
  <property name="meta.media.1.codec.name">vorbis</property>
  <property name="meta.media.1.codec.long_name">Vorbis</property>
  <property name="meta.media.1.codec.bit_rate">0</property>
  <property name="meta.attr.1.stream.VENDOR_ID.markup">[0][0][0][0]</property>
  <property name="meta.attr.1.stream.TIMECODE.markup">06:41:46:28</property>
  <property name="meta.attr.1.stream.ENCODER.markup">Lavc61.19.101 libvorbis</property>
  <property name="meta.attr.1.stream.DURATION.markup">00:00:03.004000000</property>
  <property name="meta.attr.MINOR_VERSION.markup">537986816</property>
  <property name="meta.attr.COMPATIBLE_BRANDS.markup">qt  pana</property>
  <property name="meta.attr.COM.PANASONIC.SEMI-PRO.METADATA.XML.markup">&lt;?xml version="1.0" encoding="UTF-8" standalone="no" ?>
&lt;ClipMain xmlns:xsi="http://www.w3.org/2001/XMLSchema-instance" xmlns="urn:schemas-Professional-Plug-in:Semi-Pro:ClipMetadata:v1.0">
  &lt;ClipContent>
    &lt;GlobalClipID>060A2B340101010501010D21130000009F5F7A9C0A0000047D2A149114930082&lt;/GlobalClipID>
    &lt;Duration>936&lt;/Duration>
    &lt;EditUnit>1/50&lt;/EditUnit>
    &lt;EssenceList>
      &lt;Video>
        &lt;Codec BitRate="200">H264_422_LongGOP&lt;/Codec>
        &lt;ActiveLine>2160&lt;/ActiveLine>
        &lt;ActivePixel>3840&lt;/ActivePixel>
        &lt;BitDepth>10&lt;/BitDepth>
        &lt;FrameRate>50p&lt;/FrameRate>
        &lt;TimecodeType>NonDrop&lt;/TimecodeType>
        &lt;StartTimecode>06:41:46:14&lt;/StartTimecode>
      &lt;/Video>
      &lt;Audio>
        &lt;Channel>4&lt;/Channel>
        &lt;SamplingRate>48000&lt;/SamplingRate>
        &lt;BitsPerSample>24&lt;/BitsPerSample>
      &lt;/Audio>
    &lt;/EssenceList>
    &lt;ClipMetadata>
      &lt;Rating>0&lt;/Rating>
      &lt;Access>
        &lt;CreationDate>2023-12-04T18:38:54+01:00&lt;/CreationDate>
        &lt;LastUpdateDate>2023-12-04T18:38:54+01:00&lt;/LastUpdateDate>
      &lt;/Access>
      &lt;Device>
        &lt;Manufacturer>Panasonic&lt;/Manufacturer>
        &lt;ModelName>DC-S5M2&lt;/ModelName>
      &lt;/Device>
      &lt;Shoot>
        &lt;StartDate>2023-12-04T18:38:54+01:00&lt;/StartDate>
      &lt;/Shoot>
    &lt;/ClipMetadata>
  &lt;/ClipContent>
  &lt;UserArea>
    &lt;AcquisitionMetadata xmlns="urn:schemas-Professional-Plug-in:P2:CameraMetadata:v1.2">
      &lt;CameraUnitMetadata>
        &lt;ISOSensitivity>2500&lt;/ISOSensitivity>
        &lt;Gamma>
          &lt;CaptureGamma>STANDARD&lt;/CaptureGamma>
        &lt;/Gamma>
        &lt;Gamut>
          &lt;CaptureGamut>BT.709&lt;/CaptureGamut>
        &lt;/Gamut>
      &lt;/CameraUnitMetadata>
    &lt;/AcquisitionMetadata>
  &lt;/UserArea>
&lt;/ClipMain>
</property>
  <property name="meta.attr.MAJOR_BRAND.markup">qt  </property>
  <property name="meta.attr.ENCODER.markup">Lavf61.7.100</property>
  <property name="seekable">1</property>
  <property name="meta.media.sample_aspect_num">1</property>
  <property name="meta.media.sample_aspect_den">1</property>
  <property name="format">3</property>
  <property name="audio_index">1</property>
  <property name="video_index">0</property>
  <property name="vstream">0</property>
  <property name="meta.media.frame_rate_num">50</property>
  <property name="meta.media.frame_rate_den">1</property>
  <property name="meta.media.colorspace">709</property>
  <property name="meta.media.color_trc">1</property>
  <property name="meta.media.has_b_frames">2</property>
  <property name="meta.media.width">1920</property>
  <property name="meta.media.height">1080</property>
  <property name="meta.media.aspect_ratio">1</property>
  <property name="meta.media.color_range">mpeg</property>
  <property name="astream">0</property>
  <property name="meta.media.top_field_first">0</property>
  <property name="meta.media.progressive">1</property>
  <property name="kdenlive:folderid">-1</property>
  <property name="kdenlive:id">4</property>
  <property name="kdenlive:control_uuid">{8532750e-6695-4379-a0a6-2d1c4cadba83}</property>
  <property name="mute_on_pause">0</property>
  <property name="kdenlive:clip_type">0</property>
  <property name="kdenlive:file_size">711132</property>
  <property name="kdenlive:file_hash">bb382e80ef389f3231b258cdb4769c5f</property>
  <property name="kdenlive:record_start_frame">-1</property>
  <property name="kdenlive:kextractor">1</property>
  <property name="kdenlive:meta.extractor.Bitrate">1893 kb/s</property>
  <property name="kdenlive:monitorPosition">0</property>
  <filter id="filter23">
   <property name="window">75</property>
   <property name="max_gain">20dB</property>
   <property name="level">0=0</property>
   <property name="channel_mask">-1</property>
   <property name="mlt_service">volume</property>
   <property name="kdenlive_id">volume</property>
   <property name="disable">1</property>
   <property name="kdenlive:kfrhidden">1</property>
   <property name="kdenlive:builtin">1</property>
   <property name="kdenlive:collapsed">0</property>
  </filter>
  <filter id="filter24">
   <property name="rotate_center">1</property>
   <property name="mlt_service">qtblend</property>
   <property name="kdenlive_id">qtblend</property>
   <property name="compositing">0</property>
   <property name="distort">0</property>
   <property name="rect">0=0 0 1280 720 1</property>
   <property name="rotation">0=0</property>
   <property name="disable">1</property>
   <property name="kdenlive:collapsed">1</property>
   <property name="kdenlive:builtin">1</property>
  </filter>
 </chain>
 <chain id="chain2" out="00:00:02.967">
  <property name="length">90</property>
  <property name="eof">pause</property>
  <property name="resource">footage/sample-8bit.mkv</property>
  <property name="mlt_service">avformat-novalidate</property>
  <property name="meta.media.nb_streams">2</property>
  <property name="meta.media.0.stream.type">video</property>
  <property name="meta.media.0.stream.frame_rate">50</property>
  <property name="meta.media.0.stream.sample_aspect_ratio">1</property>
  <property name="meta.media.0.codec.width">1920</property>
  <property name="meta.media.0.codec.height">1080</property>
  <property name="meta.media.0.codec.rotate">0</property>
  <property name="meta.media.0.codec.pix_fmt">yuv422p</property>
  <property name="meta.media.0.codec.sample_aspect_ratio">1</property>
  <property name="meta.media.0.codec.colorspace">709</property>
  <property name="meta.media.0.codec.color_trc">1</property>
  <property name="meta.media.0.codec.name">h264</property>
  <property name="meta.media.0.codec.long_name">H.264 / AVC / MPEG-4 AVC / MPEG-4 part 10</property>
  <property name="meta.media.0.codec.bit_rate">0</property>
  <property name="meta.attr.0.stream.VENDOR_ID.markup">[0][0][0][0]</property>
  <property name="meta.attr.0.stream.TIMECODE.markup">06:41:46:28</property>
  <property name="meta.attr.0.stream.ENCODER.markup">Lavc61.19.101 libx264</property>
  <property name="meta.attr.0.stream.DURATION.markup">00:00:03.000000000</property>
  <property name="meta.media.1.stream.type">audio</property>
  <property name="meta.media.1.codec.sample_fmt">fltp</property>
  <property name="meta.media.1.codec.sample_rate">48000</property>
  <property name="meta.media.1.codec.channels">1</property>
  <property name="meta.media.1.codec.layout">mono</property>
  <property name="meta.media.1.codec.name">vorbis</property>
  <property name="meta.media.1.codec.long_name">Vorbis</property>
  <property name="meta.media.1.codec.bit_rate">0</property>
  <property name="meta.attr.1.stream.VENDOR_ID.markup">[0][0][0][0]</property>
  <property name="meta.attr.1.stream.TIMECODE.markup">06:41:46:28</property>
  <property name="meta.attr.1.stream.ENCODER.markup">Lavc61.19.101 libvorbis</property>
  <property name="meta.attr.1.stream.DURATION.markup">00:00:03.004000000</property>
  <property name="meta.attr.MINOR_VERSION.markup">537986816</property>
  <property name="meta.attr.COMPATIBLE_BRANDS.markup">qt  pana</property>
  <property name="meta.attr.COM.PANASONIC.SEMI-PRO.METADATA.XML.markup">&lt;?xml version="1.0" encoding="UTF-8" standalone="no" ?>
&lt;ClipMain xmlns:xsi="http://www.w3.org/2001/XMLSchema-instance" xmlns="urn:schemas-Professional-Plug-in:Semi-Pro:ClipMetadata:v1.0">
  &lt;ClipContent>
    &lt;GlobalClipID>060A2B340101010501010D21130000009F5F7A9C0A0000047D2A149114930082&lt;/GlobalClipID>
    &lt;Duration>936&lt;/Duration>
    &lt;EditUnit>1/50&lt;/EditUnit>
    &lt;EssenceList>
      &lt;Video>
        &lt;Codec BitRate="200">H264_422_LongGOP&lt;/Codec>
        &lt;ActiveLine>2160&lt;/ActiveLine>
        &lt;ActivePixel>3840&lt;/ActivePixel>
        &lt;BitDepth>10&lt;/BitDepth>
        &lt;FrameRate>50p&lt;/FrameRate>
        &lt;TimecodeType>NonDrop&lt;/TimecodeType>
        &lt;StartTimecode>06:41:46:14&lt;/StartTimecode>
      &lt;/Video>
      &lt;Audio>
        &lt;Channel>4&lt;/Channel>
        &lt;SamplingRate>48000&lt;/SamplingRate>
        &lt;BitsPerSample>24&lt;/BitsPerSample>
      &lt;/Audio>
    &lt;/EssenceList>
    &lt;ClipMetadata>
      &lt;Rating>0&lt;/Rating>
      &lt;Access>
        &lt;CreationDate>2023-12-04T18:38:54+01:00&lt;/CreationDate>
        &lt;LastUpdateDate>2023-12-04T18:38:54+01:00&lt;/LastUpdateDate>
      &lt;/Access>
      &lt;Device>
        &lt;Manufacturer>Panasonic&lt;/Manufacturer>
        &lt;ModelName>DC-S5M2&lt;/ModelName>
      &lt;/Device>
      &lt;Shoot>
        &lt;StartDate>2023-12-04T18:38:54+01:00&lt;/StartDate>
      &lt;/Shoot>
    &lt;/ClipMetadata>
  &lt;/ClipContent>
  &lt;UserArea>
    &lt;AcquisitionMetadata xmlns="urn:schemas-Professional-Plug-in:P2:CameraMetadata:v1.2">
      &lt;CameraUnitMetadata>
        &lt;ISOSensitivity>2500&lt;/ISOSensitivity>
        &lt;Gamma>
          &lt;CaptureGamma>STANDARD&lt;/CaptureGamma>
        &lt;/Gamma>
        &lt;Gamut>
          &lt;CaptureGamut>BT.709&lt;/CaptureGamut>
        &lt;/Gamut>
      &lt;/CameraUnitMetadata>
    &lt;/AcquisitionMetadata>
  &lt;/UserArea>
&lt;/ClipMain>
</property>
  <property name="meta.attr.MAJOR_BRAND.markup">qt  </property>
  <property name="meta.attr.ENCODER.markup">Lavf61.7.100</property>
  <property name="seekable">1</property>
  <property name="meta.media.sample_aspect_num">1</property>
  <property name="meta.media.sample_aspect_den">1</property>
  <property name="format">3</property>
  <property name="audio_index">1</property>
  <property name="video_index">0</property>
  <property name="vstream">0</property>
  <property name="meta.media.frame_rate_num">50</property>
  <property name="meta.media.frame_rate_den">1</property>
  <property name="meta.media.colorspace">709</property>
  <property name="meta.media.color_trc">1</property>
  <property name="meta.media.has_b_frames">2</property>
  <property name="meta.media.width">1920</property>
  <property name="meta.media.height">1080</property>
  <property name="meta.media.aspect_ratio">1</property>
  <property name="meta.media.color_range">mpeg</property>
  <property name="astream">0</property>
  <property name="meta.media.top_field_first">0</property>
  <property name="meta.media.progressive">1</property>
  <property name="kdenlive:folderid">-1</property>
  <property name="kdenlive:id">5</property>
  <property name="kdenlive:control_uuid">{b80da507-fa6b-4c51-a95a-6ef0c2b34b90}</property>
  <property name="mute_on_pause">0</property>
  <property name="kdenlive:clip_type">0</property>
  <property name="kdenlive:file_size">828386</property>
  <property name="kdenlive:file_hash">4ab7db331750668fe177e64a4045de07</property>
  <property name="kdenlive:record_start_frame">-1</property>
  <property name="kdenlive:kextractor">1</property>
  <property name="kdenlive:meta.extractor.Bitrate">2206 kb/s</property>
  <property name="kdenlive:monitorPosition">0</property>
  <filter id="filter21">
   <property name="window">75</property>
   <property name="max_gain">20dB</property>
   <property name="level">0=0</property>
   <property name="channel_mask">-1</property>
   <property name="mlt_service">volume</property>
   <property name="kdenlive_id">volume</property>
   <property name="disable">1</property>
   <property name="kdenlive:kfrhidden">1</property>
   <property name="kdenlive:builtin">1</property>
   <property name="kdenlive:collapsed">0</property>
  </filter>
  <filter id="filter22">
   <property name="rotate_center">1</property>
   <property name="mlt_service">qtblend</property>
   <property name="kdenlive_id">qtblend</property>
   <property name="compositing">0</property>
   <property name="distort">0</property>
   <property name="rect">0=0 0 1280 720 1</property>
   <property name="rotation">0=0</property>
   <property name="disable">1</property>
   <property name="kdenlive:collapsed">1</property>
   <property name="kdenlive:builtin">1</property>
  </filter>
 </chain>
 <producer id="producer2" in="00:00:00.000" out="00:00:04.967">
  <property name="length">00:00:05.000</property>
  <property name="eof">pause</property>
  <property name="resource">0x800000ff</property>
  <property name="aspect_ratio">1</property>
  <property name="mlt_service">color</property>
  <property name="kdenlive:clipname">Color Clip</property>
  <property name="kdenlive:duration">00:00:05:00</property>
  <property name="xml">was here</property>
  <property name="seekable">1</property>
  <property name="kdenlive:folderid">-1</property>
  <property name="kdenlive:id">6</property>
  <property name="kdenlive:control_uuid">{147226dc-3ea5-4195-8664-16639a9569aa}</property>
  <property name="mlt_image_format">rgb</property>
  <property name="kdenlive:clip_type">2</property>
  <property name="kdenlive:file_hash">9a1332bfe8530000f970edcb32ed85d3</property>
  <property name="kdenlive:monitorPosition">0</property>
  <filter id="filter7">
   <property name="rotate_center">1</property>
   <property name="mlt_service">qtblend</property>
   <property name="kdenlive_id">qtblend</property>
   <property name="compositing">0</property>
   <property name="distort">0</property>
   <property name="rect">0=0 0 1280 720 1</property>
   <property name="rotation">0=0</property>
   <property name="disable">1</property>
   <property name="kdenlive:collapsed">1</property>
   <property name="kdenlive:builtin">1</property>
  </filter>
 </producer>
 <producer id="producer1" in="00:00:00.000" out="00:00:13.533">
  <property name="length">407</property>
  <property name="eof">pause</property>
  <property name="resource">0xffff80ff</property>
  <property name="aspect_ratio">1</property>
  <property name="mlt_service">color</property>
  <property name="kdenlive:clipname">Color Clip</property>
  <property name="kdenlive:duration">00:00:05:00</property>
  <property name="xml">was here</property>
  <property name="seekable">1</property>
  <property name="kdenlive:folderid">-1</property>
  <property name="kdenlive:id">7</property>
  <property name="kdenlive:control_uuid">{e77a0ed9-dcc9-4cd9-b7fd-94a350b78f92}</property>
  <property name="mlt_image_format">rgb</property>
  <property name="kdenlive:clip_type">2</property>
  <property name="kdenlive:file_hash">a82c313aa597e4dac6baec70a2d51912</property>
  <property name="kdenlive:monitorPosition">0</property>
  <filter id="filter6">
   <property name="rotate_center">1</property>
   <property name="mlt_service">qtblend</property>
   <property name="kdenlive_id">qtblend</property>
   <property name="compositing">0</property>
   <property name="distort">0</property>
   <property name="rect">0=0 0 1280 720 1</property>
   <property name="rotation">0=0</property>
   <property name="disable">1</property>
   <property name="kdenlive:collapsed">1</property>
   <property name="kdenlive:builtin">1</property>
  </filter>
 </producer>
 <producer id="producer0" in="00:00:00.000" out="00:05:04.500">
  <property name="length">2147483647</property>
  <property name="eof">continue</property>
  <property name="resource">black</property>
  <property name="aspect_ratio">1</property>
  <property name="mlt_service">color</property>
  <property name="kdenlive:playlistid">black_track</property>
  <property name="mlt_image_format">rgba</property>
  <property name="set.test_audio">0</property>
 </producer>
 <playlist id="playlist0">
  <property name="kdenlive:audio_track">1</property>
 </playlist>
 <playlist id="playlist1">
  <property name="kdenlive:audio_track">1</property>
 </playlist>
 <tractor id="tractor0" in="00:00:00.000">
  <property name="kdenlive:audio_track">1</property>
  <property name="kdenlive:trackheight">67</property>
  <property name="kdenlive:timeline_active">1</property>
  <property name="kdenlive:collapsed">0</property>
  <property name="kdenlive:thumbs_format"/>
  <property name="kdenlive:audio_rec"/>
  <track hide="video" producer="playlist0"/>
  <track hide="video" producer="playlist1"/>
  <filter id="filter0">
   <property name="window">75</property>
   <property name="max_gain">20dB</property>
   <property name="channel_mask">-1</property>
   <property name="mlt_service">volume</property>
   <property name="internal_added">237</property>
   <property name="disable">1</property>
  </filter>
  <filter id="filter1">
   <property name="channel">-1</property>
   <property name="mlt_service">panner</property>
   <property name="internal_added">237</property>
   <property name="start">0.5</property>
   <property name="disable">1</property>
  </filter>
  <filter id="filter2">
   <property name="iec_scale">0</property>
   <property name="mlt_service">audiolevel</property>
   <property name="dbpeak">1</property>
   <property name="disable">1</property>
  </filter>
 </tractor>
 <playlist id="playlist2">
  <property name="kdenlive:audio_track">1</property>
 </playlist>
 <playlist id="playlist3">
  <property name="kdenlive:audio_track">1</property>
 </playlist>
 <tractor id="tractor1" in="00:00:00.000">
  <property name="kdenlive:audio_track">1</property>
  <property name="kdenlive:trackheight">67</property>
  <property name="kdenlive:timeline_active">1</property>
  <property name="kdenlive:collapsed">0</property>
  <property name="kdenlive:thumbs_format"/>
  <property name="kdenlive:audio_rec"/>
  <track hide="video" producer="playlist2"/>
  <track hide="video" producer="playlist3"/>
  <filter id="filter3">
   <property name="window">75</property>
   <property name="max_gain">20dB</property>
   <property name="channel_mask">-1</property>
   <property name="mlt_service">volume</property>
   <property name="internal_added">237</property>
   <property name="disable">1</property>
  </filter>
  <filter id="filter4">
   <property name="channel">-1</property>
   <property name="mlt_service">panner</property>
   <property name="internal_added">237</property>
   <property name="start">0.5</property>
   <property name="disable">1</property>
  </filter>
  <filter id="filter5">
   <property name="iec_scale">0</property>
   <property name="mlt_service">audiolevel</property>
   <property name="dbpeak">1</property>
   <property name="disable">1</property>
  </filter>
 </tractor>
 <playlist id="playlist4">
  <entry in="00:00:00.000" out="00:00:04.467" producer="producer1">
   <property name="kdenlive:id">7</property>
  </entry>
 </playlist>
 <playlist id="playlist5"/>
 <tractor id="tractor2" in="00:00:00.000" out="00:00:04.467">
  <property name="kdenlive:trackheight">67</property>
  <property name="kdenlive:timeline_active">1</property>
  <property name="kdenlive:collapsed">0</property>
  <property name="kdenlive:thumbs_format"/>
  <property name="kdenlive:audio_rec"/>
  <track hide="audio" producer="playlist4"/>
  <track hide="audio" producer="playlist5"/>
 </tractor>
 <chain id="chain0" out="00:00:02.967">
  <property name="length">90</property>
  <property name="eof">pause</property>
  <property name="resource">footage/sample-8bit.mkv</property>
  <property name="mlt_service">avformat-novalidate</property>
  <property name="seekable">1</property>
  <property name="format">3</property>
  <property name="audio_index">1</property>
  <property name="video_index">0</property>
  <property name="vstream">0</property>
  <property name="astream">0</property>
  <property name="kdenlive:folderid">-1</property>
  <property name="kdenlive:id">5</property>
  <property name="kdenlive:control_uuid">{b80da507-fa6b-4c51-a95a-6ef0c2b34b90}</property>
  <property name="mute_on_pause">0</property>
  <property name="kdenlive:clip_type">0</property>
  <property name="kdenlive:file_size">828386</property>
  <property name="kdenlive:file_hash">4ab7db331750668fe177e64a4045de07</property>
  <property name="kdenlive:record_start_frame">-1</property>
  <property name="kdenlive:kextractor">1</property>
  <property name="kdenlive:meta.extractor.Bitrate">2206 kb/s</property>
  <property name="kdenlive:monitorPosition">0</property>
  <property name="meta.media.nb_streams">2</property>
  <property name="meta.media.0.stream.type">video</property>
  <property name="meta.media.0.stream.frame_rate">50</property>
  <property name="meta.media.0.stream.sample_aspect_ratio">1</property>
  <property name="meta.media.0.codec.width">1920</property>
  <property name="meta.media.0.codec.height">1080</property>
  <property name="meta.media.0.codec.rotate">0</property>
  <property name="meta.media.0.codec.pix_fmt">yuv422p</property>
  <property name="meta.media.0.codec.sample_aspect_ratio">1</property>
  <property name="meta.media.0.codec.colorspace">709</property>
  <property name="meta.media.0.codec.color_trc">1</property>
  <property name="meta.media.0.codec.name">h264</property>
  <property name="meta.media.0.codec.long_name">H.264 / AVC / MPEG-4 AVC / MPEG-4 part 10</property>
  <property name="meta.media.0.codec.bit_rate">0</property>
  <property name="meta.attr.0.stream.VENDOR_ID.markup">[0][0][0][0]</property>
  <property name="meta.attr.0.stream.TIMECODE.markup">06:41:46:28</property>
  <property name="meta.attr.0.stream.ENCODER.markup">Lavc61.19.101 libx264</property>
  <property name="meta.attr.0.stream.DURATION.markup">00:00:03.000000000</property>
  <property name="meta.media.1.stream.type">audio</property>
  <property name="meta.media.1.codec.sample_fmt">fltp</property>
  <property name="meta.media.1.codec.sample_rate">48000</property>
  <property name="meta.media.1.codec.channels">1</property>
  <property name="meta.media.1.codec.layout">mono</property>
  <property name="meta.media.1.codec.name">vorbis</property>
  <property name="meta.media.1.codec.long_name">Vorbis</property>
  <property name="meta.media.1.codec.bit_rate">0</property>
  <property name="meta.attr.1.stream.VENDOR_ID.markup">[0][0][0][0]</property>
  <property name="meta.attr.1.stream.TIMECODE.markup">06:41:46:28</property>
  <property name="meta.attr.1.stream.ENCODER.markup">Lavc61.19.101 libvorbis</property>
  <property name="meta.attr.1.stream.DURATION.markup">00:00:03.004000000</property>
  <property name="meta.attr.MINOR_VERSION.markup">537986816</property>
  <property name="meta.attr.COMPATIBLE_BRANDS.markup">qt  pana</property>
  <property name="meta.attr.COM.PANASONIC.SEMI-PRO.METADATA.XML.markup">&lt;?xml version="1.0" encoding="UTF-8" standalone="no" ?>
&lt;ClipMain xmlns:xsi="http://www.w3.org/2001/XMLSchema-instance" xmlns="urn:schemas-Professional-Plug-in:Semi-Pro:ClipMetadata:v1.0">
  &lt;ClipContent>
    &lt;GlobalClipID>060A2B340101010501010D21130000009F5F7A9C0A0000047D2A149114930082&lt;/GlobalClipID>
    &lt;Duration>936&lt;/Duration>
    &lt;EditUnit>1/50&lt;/EditUnit>
    &lt;EssenceList>
      &lt;Video>
        &lt;Codec BitRate="200">H264_422_LongGOP&lt;/Codec>
        &lt;ActiveLine>2160&lt;/ActiveLine>
        &lt;ActivePixel>3840&lt;/ActivePixel>
        &lt;BitDepth>10&lt;/BitDepth>
        &lt;FrameRate>50p&lt;/FrameRate>
        &lt;TimecodeType>NonDrop&lt;/TimecodeType>
        &lt;StartTimecode>06:41:46:14&lt;/StartTimecode>
      &lt;/Video>
      &lt;Audio>
        &lt;Channel>4&lt;/Channel>
        &lt;SamplingRate>48000&lt;/SamplingRate>
        &lt;BitsPerSample>24&lt;/BitsPerSample>
      &lt;/Audio>
    &lt;/EssenceList>
    &lt;ClipMetadata>
      &lt;Rating>0&lt;/Rating>
      &lt;Access>
        &lt;CreationDate>2023-12-04T18:38:54+01:00&lt;/CreationDate>
        &lt;LastUpdateDate>2023-12-04T18:38:54+01:00&lt;/LastUpdateDate>
      &lt;/Access>
      &lt;Device>
        &lt;Manufacturer>Panasonic&lt;/Manufacturer>
        &lt;ModelName>DC-S5M2&lt;/ModelName>
      &lt;/Device>
      &lt;Shoot>
        &lt;StartDate>2023-12-04T18:38:54+01:00&lt;/StartDate>
      &lt;/Shoot>
    &lt;/ClipMetadata>
  &lt;/ClipContent>
  &lt;UserArea>
    &lt;AcquisitionMetadata xmlns="urn:schemas-Professional-Plug-in:P2:CameraMetadata:v1.2">
      &lt;CameraUnitMetadata>
        &lt;ISOSensitivity>2500&lt;/ISOSensitivity>
        &lt;Gamma>
          &lt;CaptureGamma>STANDARD&lt;/CaptureGamma>
        &lt;/Gamma>
        &lt;Gamut>
          &lt;CaptureGamut>BT.709&lt;/CaptureGamut>
        &lt;/Gamut>
      &lt;/CameraUnitMetadata>
    &lt;/AcquisitionMetadata>
  &lt;/UserArea>
&lt;/ClipMain>
</property>
  <property name="meta.attr.MAJOR_BRAND.markup">qt  </property>
  <property name="meta.attr.ENCODER.markup">Lavf61.7.100</property>
  <property name="meta.media.sample_aspect_num">1</property>
  <property name="meta.media.sample_aspect_den">1</property>
  <property name="meta.media.frame_rate_num">50</property>
  <property name="meta.media.frame_rate_den">1</property>
  <property name="meta.media.colorspace">709</property>
  <property name="meta.media.color_trc">1</property>
  <property name="meta.media.has_b_frames">2</property>
  <property name="meta.media.width">1920</property>
  <property name="meta.media.height">1080</property>
  <property name="meta.media.aspect_ratio">1</property>
  <property name="meta.media.color_range">mpeg</property>
  <property name="xml">was here</property>
  <property name="meta.media.top_field_first">0</property>
  <property name="meta.media.progressive">1</property>
  <property name="set.test_audio">1</property>
  <property name="set.test_image">0</property>
  <filter id="filter8">
   <property name="window">75</property>
   <property name="max_gain">20dB</property>
   <property name="level">0=0</property>
   <property name="channel_mask">-1</property>
   <property name="mlt_service">volume</property>
   <property name="kdenlive_id">volume</property>
   <property name="disable">1</property>
  </filter>
  <filter id="filter9">
   <property name="rotate_center">1</property>
   <property name="mlt_service">qtblend</property>
   <property name="kdenlive_id">qtblend</property>
   <property name="compositing">0</property>
   <property name="distort">0</property>
   <property name="rect">0=0 0 1280 720 1</property>
   <property name="rotation">0=0</property>
   <property name="disable">1</property>
  </filter>
 </chain>
 <chain id="chain1" out="00:00:02.967">
  <property name="length">90</property>
  <property name="eof">pause</property>
  <property name="resource">footage/sample-10bit.mkv</property>
  <property name="mlt_service">avformat-novalidate</property>
  <property name="seekable">1</property>
  <property name="format">3</property>
  <property name="audio_index">1</property>
  <property name="video_index">0</property>
  <property name="vstream">0</property>
  <property name="astream">0</property>
  <property name="kdenlive:folderid">-1</property>
  <property name="kdenlive:id">4</property>
  <property name="kdenlive:control_uuid">{8532750e-6695-4379-a0a6-2d1c4cadba83}</property>
  <property name="mute_on_pause">0</property>
  <property name="kdenlive:clip_type">0</property>
  <property name="kdenlive:file_size">711132</property>
  <property name="kdenlive:file_hash">bb382e80ef389f3231b258cdb4769c5f</property>
  <property name="kdenlive:record_start_frame">-1</property>
  <property name="kdenlive:kextractor">1</property>
  <property name="kdenlive:meta.extractor.Bitrate">1893 kb/s</property>
  <property name="kdenlive:monitorPosition">0</property>
  <property name="meta.media.nb_streams">2</property>
  <property name="meta.media.0.stream.type">video</property>
  <property name="meta.media.0.stream.frame_rate">50</property>
  <property name="meta.media.0.stream.sample_aspect_ratio">1</property>
  <property name="meta.media.0.codec.width">1920</property>
  <property name="meta.media.0.codec.height">1080</property>
  <property name="meta.media.0.codec.rotate">0</property>
  <property name="meta.media.0.codec.pix_fmt">yuv422p10le</property>
  <property name="meta.media.0.codec.sample_aspect_ratio">1</property>
  <property name="meta.media.0.codec.colorspace">709</property>
  <property name="meta.media.0.codec.color_trc">1</property>
  <property name="meta.media.0.codec.name">h264</property>
  <property name="meta.media.0.codec.long_name">H.264 / AVC / MPEG-4 AVC / MPEG-4 part 10</property>
  <property name="meta.media.0.codec.bit_rate">0</property>
  <property name="meta.attr.0.stream.VENDOR_ID.markup">[0][0][0][0]</property>
  <property name="meta.attr.0.stream.TIMECODE.markup">06:41:46:28</property>
  <property name="meta.attr.0.stream.ENCODER.markup">Lavc61.19.101 libx264</property>
  <property name="meta.attr.0.stream.DURATION.markup">00:00:03.000000000</property>
  <property name="meta.media.1.stream.type">audio</property>
  <property name="meta.media.1.codec.sample_fmt">fltp</property>
  <property name="meta.media.1.codec.sample_rate">48000</property>
  <property name="meta.media.1.codec.channels">1</property>
  <property name="meta.media.1.codec.layout">mono</property>
  <property name="meta.media.1.codec.name">vorbis</property>
  <property name="meta.media.1.codec.long_name">Vorbis</property>
  <property name="meta.media.1.codec.bit_rate">0</property>
  <property name="meta.attr.1.stream.VENDOR_ID.markup">[0][0][0][0]</property>
  <property name="meta.attr.1.stream.TIMECODE.markup">06:41:46:28</property>
  <property name="meta.attr.1.stream.ENCODER.markup">Lavc61.19.101 libvorbis</property>
  <property name="meta.attr.1.stream.DURATION.markup">00:00:03.004000000</property>
  <property name="meta.attr.MINOR_VERSION.markup">537986816</property>
  <property name="meta.attr.COMPATIBLE_BRANDS.markup">qt  pana</property>
  <property name="meta.attr.COM.PANASONIC.SEMI-PRO.METADATA.XML.markup">&lt;?xml version="1.0" encoding="UTF-8" standalone="no" ?>
&lt;ClipMain xmlns:xsi="http://www.w3.org/2001/XMLSchema-instance" xmlns="urn:schemas-Professional-Plug-in:Semi-Pro:ClipMetadata:v1.0">
  &lt;ClipContent>
    &lt;GlobalClipID>060A2B340101010501010D21130000009F5F7A9C0A0000047D2A149114930082&lt;/GlobalClipID>
    &lt;Duration>936&lt;/Duration>
    &lt;EditUnit>1/50&lt;/EditUnit>
    &lt;EssenceList>
      &lt;Video>
        &lt;Codec BitRate="200">H264_422_LongGOP&lt;/Codec>
        &lt;ActiveLine>2160&lt;/ActiveLine>
        &lt;ActivePixel>3840&lt;/ActivePixel>
        &lt;BitDepth>10&lt;/BitDepth>
        &lt;FrameRate>50p&lt;/FrameRate>
        &lt;TimecodeType>NonDrop&lt;/TimecodeType>
        &lt;StartTimecode>06:41:46:14&lt;/StartTimecode>
      &lt;/Video>
      &lt;Audio>
        &lt;Channel>4&lt;/Channel>
        &lt;SamplingRate>48000&lt;/SamplingRate>
        &lt;BitsPerSample>24&lt;/BitsPerSample>
      &lt;/Audio>
    &lt;/EssenceList>
    &lt;ClipMetadata>
      &lt;Rating>0&lt;/Rating>
      &lt;Access>
        &lt;CreationDate>2023-12-04T18:38:54+01:00&lt;/CreationDate>
        &lt;LastUpdateDate>2023-12-04T18:38:54+01:00&lt;/LastUpdateDate>
      &lt;/Access>
      &lt;Device>
        &lt;Manufacturer>Panasonic&lt;/Manufacturer>
        &lt;ModelName>DC-S5M2&lt;/ModelName>
      &lt;/Device>
      &lt;Shoot>
        &lt;StartDate>2023-12-04T18:38:54+01:00&lt;/StartDate>
      &lt;/Shoot>
    &lt;/ClipMetadata>
  &lt;/ClipContent>
  &lt;UserArea>
    &lt;AcquisitionMetadata xmlns="urn:schemas-Professional-Plug-in:P2:CameraMetadata:v1.2">
      &lt;CameraUnitMetadata>
        &lt;ISOSensitivity>2500&lt;/ISOSensitivity>
        &lt;Gamma>
          &lt;CaptureGamma>STANDARD&lt;/CaptureGamma>
        &lt;/Gamma>
        &lt;Gamut>
          &lt;CaptureGamut>BT.709&lt;/CaptureGamut>
        &lt;/Gamut>
      &lt;/CameraUnitMetadata>
    &lt;/AcquisitionMetadata>
  &lt;/UserArea>
&lt;/ClipMain>
</property>
  <property name="meta.attr.MAJOR_BRAND.markup">qt  </property>
  <property name="meta.attr.ENCODER.markup">Lavf61.7.100</property>
  <property name="meta.media.sample_aspect_num">1</property>
  <property name="meta.media.sample_aspect_den">1</property>
  <property name="meta.media.frame_rate_num">50</property>
  <property name="meta.media.frame_rate_den">1</property>
  <property name="meta.media.colorspace">709</property>
  <property name="meta.media.color_trc">1</property>
  <property name="meta.media.has_b_frames">2</property>
  <property name="meta.media.width">1920</property>
  <property name="meta.media.height">1080</property>
  <property name="meta.media.aspect_ratio">1</property>
  <property name="meta.media.color_range">mpeg</property>
  <property name="xml">was here</property>
  <property name="meta.media.top_field_first">0</property>
  <property name="meta.media.progressive">1</property>
  <property name="set.test_audio">1</property>
  <property name="set.test_image">0</property>
  <filter id="filter10">
   <property name="window">75</property>
   <property name="max_gain">20dB</property>
   <property name="level">0=0</property>
   <property name="channel_mask">-1</property>
   <property name="mlt_service">volume</property>
   <property name="kdenlive_id">volume</property>
   <property name="disable">1</property>
  </filter>
  <filter id="filter11">
   <property name="rotate_center">1</property>
   <property name="mlt_service">qtblend</property>
   <property name="kdenlive_id">qtblend</property>
   <property name="compositing">0</property>
   <property name="distort">0</property>
   <property name="rect">0=0 0 1280 720 1</property>
   <property name="rotation">0=0</property>
   <property name="disable">1</property>
  </filter>
 </chain>
 <playlist id="playlist6">
  <entry in="00:00:00.000" out="00:00:00.467" producer="producer2">
   <property name="kdenlive:id">6</property>
   <filter id="filter12">
    <property name="rotate_center">1</property>
    <property name="mlt_service">qtblend</property>
    <property name="kdenlive_id">qtblend</property>
    <property name="compositing">0</property>
    <property name="distort">0</property>
    <property name="rect">0=0 0 1280 720 1</property>
    <property name="rotation">0=0</property>
    <property name="disable">1</property>
    <property name="kdenlive:collapsed">1</property>
    <property name="kdenlive:builtin">1</property>
   </filter>
   <filter id="filter13" out="00:00:00.500">
    <property name="start">1</property>
    <property name="level">1</property>
    <property name="mlt_service">brightness</property>
    <property name="kdenlive_id">fade_from_black</property>
    <property name="alpha">00:00:00.000=0;00:00:00.533=0.372093</property>
    <property name="kdenlive:collapsed">0</property>
   </filter>
  </entry>
  <entry in="00:00:00.000" out="00:00:00.467" producer="producer2">
   <property name="kdenlive:id">6</property>
   <filter id="filter14">
    <property name="rotate_center">1</property>
    <property name="mlt_service">qtblend</property>
    <property name="kdenlive_id">qtblend</property>
    <property name="compositing">0</property>
    <property name="distort">0</property>
    <property name="rect">00:00:00.000=0 0 1280 720 1.000000</property>
    <property name="rotation">0=0</property>
    <property name="kdenlive:builtin">1</property>
    <property name="kdenlive:collapsed">1</property>
    <property name="disable">1</property>
   </filter>
   <filter id="filter15">
    <property name="rect">00:00:00.000=626 0 654 725</property>
    <property name="circle">0</property>
    <property name="color">00:00:00.000=0x00000000</property>
    <property name="radius">00:00:00.000=0</property>
    <property name="mlt_service">qtcrop</property>
    <property name="kdenlive_id">qtcrop</property>
    <property name="kdenlive:collapsed">0</property>
   </filter>
  </entry>
  <entry in="00:00:00.000" out="00:00:00.467" producer="producer2">
   <property name="kdenlive:id">6</property>
   <filter id="filter16">
    <property name="rotate_center">1</property>
    <property name="mlt_service">qtblend</property>
    <property name="kdenlive_id">qtblend</property>
    <property name="compositing">0</property>
    <property name="distort">0</property>
    <property name="rect">0=0 0 1280 720 1.000000</property>
    <property name="rotation">0=0</property>
    <property name="kdenlive:builtin">1</property>
    <property name="disable">1</property>
    <property name="kdenlive:collapsed">1</property>
   </filter>
   <filter id="filter17">
    <property name="version">0.2</property>
    <property name="mlt_service">frei0r.alpha0ps_alphaspot</property>
    <property name="kdenlive_id">frei0r.alpha0ps_alphaspot</property>
    <property name="Shape">0</property>
    <property name="Position X">00:00:00.000=0.5</property>
    <property name="Position Y">00:00:00.000=0.5</property>
    <property name="Size X">00:00:00.000=0.1</property>
    <property name="Size Y">00:00:00.000=0.1</property>
    <property name="Tilt">00:00:00.000=0.5</property>
    <property name="Transition width">00:00:00.000=0.2</property>
    <property name="Min">00:00:00.000=0</property>
    <property name="Max">00:00:00.000=1</property>
    <property name="Operation">1</property>
    <property name="kdenlive:collapsed">0</property>
   </filter>
  </entry>
  <entry in="00:00:00.000" out="00:00:00.467" producer="chain0">
   <property name="kdenlive:id">5</property>
   <filter id="filter18">
    <property name="rotate_center">1</property>
    <property name="mlt_service">qtblend</property>
    <property name="kdenlive_id">qtblend</property>
    <property name="compositing">0</property>
    <property name="distort">0</property>
    <property name="rect">0=0 0 1280 720 1</property>
    <property name="rotation">0=0</property>
    <property name="disable">1</property>
    <property name="kdenlive:collapsed">1</property>
    <property name="kdenlive:builtin">1</property>
   </filter>
   <filter id="filter19" out="00:00:00.500">
    <property name="start">1</property>
    <property name="level">1</property>
    <property name="mlt_service">brightness</property>
    <property name="kdenlive_id">fade_from_black</property>
    <property name="alpha">00:00:00.000=0;00:00:00.533=0.340426</property>
    <property name="kdenlive:collapsed">0</property>
   </filter>
  </entry>
  <entry in="00:00:01.567" out="00:00:02.033" producer="chain0">
   <property name="kdenlive:id">5</property>
   <filter id="filter20">
    <property name="rotate_center">1</property>
    <property name="mlt_service">qtblend</property>
    <property name="kdenlive_id">qtblend</property>
    <property name="compositing">0</property>
    <property name="distort">0</property>
    <property name="rect">00:00:01.567=0 0 1280 720 1.000000</property>
    <property name="rotation">00:00:01.567=0</property>
    <property name="kdenlive:builtin">1</property>
    <property name="kdenlive:collapsed">1</property>
    <property name="disable">1</property>
   </filter>
   <filter id="filter25">
    <property name="rect">00:00:01.567=626 0 654 725</property>
    <property name="circle">0</property>
    <property name="color">00:00:01.567=0x00000000</property>
    <property name="radius">00:00:01.567=0</property>
    <property name="mlt_service">qtcrop</property>
    <property name="kdenlive_id">qtcrop</property>
    <property name="kdenlive:collapsed">0</property>
   </filter>
  </entry>
  <entry in="00:00:01.567" out="00:00:02.033" producer="chain0">
   <property name="kdenlive:id">5</property>
   <filter id="filter26">
    <property name="rotate_center">1</property>
    <property name="mlt_service">qtblend</property>
    <property name="kdenlive_id">qtblend</property>
    <property name="compositing">0</property>
    <property name="distort">0</property>
    <property name="rect">47=0 0 1280 720 1.000000</property>
    <property name="rotation">47=0</property>
    <property name="kdenlive:builtin">1</property>
    <property name="disable">1</property>
    <property name="kdenlive:collapsed">1</property>
   </filter>
   <filter id="filter27">
    <property name="version">0.2</property>
    <property name="mlt_service">frei0r.alpha0ps_alphaspot</property>
    <property name="kdenlive_id">frei0r.alpha0ps_alphaspot</property>
    <property name="Shape">0</property>
    <property name="Position X">00:00:01.567=0.5</property>
    <property name="Position Y">00:00:01.567=0.5</property>
    <property name="Size X">00:00:01.567=0.1</property>
    <property name="Size Y">00:00:01.567=0.1</property>
    <property name="Tilt">00:00:01.567=0.5</property>
    <property name="Transition width">00:00:01.567=0.2</property>
    <property name="Min">00:00:01.567=0</property>
    <property name="Max">00:00:01.567=1</property>
    <property name="Operation">1</property>
    <property name="kdenlive:collapsed">0</property>
   </filter>
  </entry>
  <entry in="00:00:00.000" out="00:00:00.467" producer="chain1">
   <property name="kdenlive:id">4</property>
   <filter id="filter28">
    <property name="rotate_center">1</property>
    <property name="mlt_service">qtblend</property>
    <property name="kdenlive_id">qtblend</property>
    <property name="compositing">0</property>
    <property name="distort">0</property>
    <property name="rect">0=0 0 1280 720 1</property>
    <property name="rotation">0=0</property>
    <property name="disable">1</property>
    <property name="kdenlive:collapsed">1</property>
    <property name="kdenlive:builtin">1</property>
   </filter>
   <filter id="filter29" out="00:00:00.500">
    <property name="start">1</property>
    <property name="level">1</property>
    <property name="mlt_service">brightness</property>
    <property name="kdenlive_id">fade_from_black</property>
    <property name="alpha">00:00:00.000=0;00:00:00.533=0.372093</property>
    <property name="kdenlive:collapsed">0</property>
   </filter>
  </entry>
  <entry in="00:00:01.433" out="00:00:01.900" producer="chain1">
   <property name="kdenlive:id">4</property>
   <filter id="filter30">
    <property name="rotate_center">1</property>
    <property name="mlt_service">qtblend</property>
    <property name="kdenlive_id">qtblend</property>
    <property name="compositing">0</property>
    <property name="distort">0</property>
    <property name="rect">43=0 0 1280 720 1</property>
    <property name="rotation">43=0</property>
    <property name="disable">1</property>
    <property name="kdenlive:collapsed">1</property>
    <property name="kdenlive:builtin">1</property>
   </filter>
   <filter id="filter31">
    <property name="rect">00:00:01.433=626 0 654 725</property>
    <property name="circle">0</property>
    <property name="color">00:00:01.433=0x00000000</property>
    <property name="radius">00:00:01.433=0</property>
    <property name="mlt_service">qtcrop</property>
    <property name="kdenlive_id">qtcrop</property>
    <property name="kdenlive:collapsed">0</property>
   </filter>
  </entry>
  <entry in="00:00:01.433" out="00:00:01.900" producer="chain1">
   <property name="kdenlive:id">4</property>
   <filter id="filter32">
    <property name="rotate_center">1</property>
    <property name="mlt_service">qtblend</property>
    <property name="kdenlive_id">qtblend</property>
    <property name="compositing">0</property>
    <property name="distort">0</property>
    <property name="rect">43=0 0 1280 720 1</property>
    <property name="rotation">43=0</property>
    <property name="kdenlive:builtin">1</property>
    <property name="disable">1</property>
    <property name="kdenlive:collapsed">1</property>
   </filter>
   <filter id="filter33">
    <property name="version">0.2</property>
    <property name="mlt_service">frei0r.alpha0ps_alphaspot</property>
    <property name="kdenlive_id">frei0r.alpha0ps_alphaspot</property>
    <property name="Shape">0</property>
    <property name="Position X">00:00:01.433=0.5</property>
    <property name="Position Y">00:00:01.433=0.5</property>
    <property name="Size X">00:00:01.433=0.1</property>
    <property name="Size Y">00:00:01.433=0.1</property>
    <property name="Tilt">00:00:01.433=0.5</property>
    <property name="Transition width">00:00:01.433=0.2</property>
    <property name="Min">00:00:01.433=0</property>
    <property name="Max">00:00:01.433=1</property>
    <property name="Operation">1</property>
    <property name="kdenlive:collapsed">0</property>
   </filter>
  </entry>
 </playlist>
 <playlist id="playlist7"/>
 <tractor id="tractor3" in="00:00:00.000" out="00:00:04.467">
  <property name="kdenlive:trackheight">67</property>
  <property name="kdenlive:timeline_active">1</property>
  <property name="kdenlive:collapsed">0</property>
  <property name="kdenlive:thumbs_format"/>
  <property name="kdenlive:audio_rec"/>
  <track hide="audio" producer="playlist6"/>
  <track hide="audio" producer="playlist7"/>
 </tractor>
 <tractor id="tractor4" in="00:00:00.000" out="00:00:04.467">
  <property name="kdenlive:duration">00:00:04.500</property>
  <property name="kdenlive:maxduration">135</property>
  <property name="kdenlive:clipname">Sequence 1</property>
  <property name="kdenlive:description"/>
  <property name="kdenlive:uuid">{7bd582c1-515f-4a8e-b141-e2e302ef6524}</property>
  <property name="kdenlive:producer_type">17</property>
  <property name="kdenlive:control_uuid">{7bd582c1-515f-4a8e-b141-e2e302ef6524}</property>
  <property name="kdenlive:id">3</property>
  <property name="kdenlive:clip_type">0</property>
  <property name="kdenlive:file_hash">22b8c90c5e6ca83d6d479bfefbe2fc83</property>
  <property name="kdenlive:folderid">2</property>
  <property name="kdenlive:sequenceproperties.activeTrack">2</property>
  <property name="kdenlive:sequenceproperties.audioTarget">1</property>
  <property name="kdenlive:sequenceproperties.disablepreview">0</property>
  <property name="kdenlive:sequenceproperties.documentuuid">{7bd582c1-515f-4a8e-b141-e2e302ef6524}</property>
  <property name="kdenlive:sequenceproperties.hasAudio">1</property>
  <property name="kdenlive:sequenceproperties.hasVideo">1</property>
  <property name="kdenlive:sequenceproperties.position">0</property>
  <property name="kdenlive:sequenceproperties.scrollPos">0</property>
  <property name="kdenlive:sequenceproperties.tracks">4</property>
  <property name="kdenlive:sequenceproperties.tracksCount">4</property>
  <property name="kdenlive:sequenceproperties.verticalzoom">1</property>
  <property name="kdenlive:sequenceproperties.videoTarget">2</property>
  <property name="kdenlive:sequenceproperties.zonein">0</property>
  <property name="kdenlive:sequenceproperties.zoneout">75</property>
  <property name="kdenlive:sequenceproperties.zoom">5</property>
  <property name="kdenlive:sequenceproperties.groups">[
]
</property>
  <property name="kdenlive:sequenceproperties.guides">[
]
</property>
  <track producer="producer0"/>
  <track producer="tractor0"/>
  <track producer="tractor1"/>
  <track producer="tractor2"/>
  <track producer="tractor3"/>
  <transition id="transition0">
   <property name="a_track">0</property>
   <property name="b_track">1</property>
   <property name="mlt_service">mix</property>
   <property name="kdenlive_id">mix</property>
   <property name="internal_added">237</property>
   <property name="always_active">1</property>
   <property name="accepts_blanks">1</property>
   <property name="sum">1</property>
  </transition>
  <transition id="transition1">
   <property name="a_track">0</property>
   <property name="b_track">2</property>
   <property name="mlt_service">mix</property>
   <property name="kdenlive_id">mix</property>
   <property name="internal_added">237</property>
   <property name="always_active">1</property>
   <property name="accepts_blanks">1</property>
   <property name="sum">1</property>
  </transition>
  <transition id="transition2">
   <property name="a_track">0</property>
   <property name="b_track">3</property>
   <property name="compositing">0</property>
   <property name="distort">0</property>
   <property name="rotate_center">0</property>
   <property name="mlt_service">qtblend</property>
   <property name="kdenlive_id">qtblend</property>
   <property name="internal_added">237</property>
   <property name="always_active">1</property>
  </transition>
  <transition id="transition3">
   <property name="a_track">0</property>
   <property name="b_track">4</property>
   <property name="compositing">0</property>
   <property name="distort">0</property>
   <property name="rotate_center">0</property>
   <property name="mlt_service">qtblend</property>
   <property name="kdenlive_id">qtblend</property>
   <property name="internal_added">237</property>
   <property name="always_active">1</property>
  </transition>
  <filter id="filter34">
   <property name="window">75</property>
   <property name="max_gain">20dB</property>
   <property name="channel_mask">-1</property>
   <property name="mlt_service">volume</property>
   <property name="internal_added">237</property>
   <property name="disable">1</property>
  </filter>
  <filter id="filter35">
   <property name="channel">-1</property>
   <property name="mlt_service">panner</property>
   <property name="internal_added">237</property>
   <property name="start">0.5</property>
   <property name="disable">1</property>
  </filter>
 </tractor>
 <playlist id="main_bin">
  <property name="kdenlive:folder.-1.2">Sequences</property>
  <property name="kdenlive:sequenceFolder">2</property>
  <property name="kdenlive:docproperties.activetimeline">{7bd582c1-515f-4a8e-b141-e2e302ef6524}</property>
  <property name="kdenlive:docproperties.audioChannels">2</property>
  <property name="kdenlive:docproperties.binsort">0</property>
  <property name="kdenlive:docproperties.browserurl">footage/</property>
  <property name="kdenlive:docproperties.documentid">1758512634019</property>
  <property name="kdenlive:docproperties.enableTimelineZone">0</property>
  <property name="kdenlive:docproperties.enableexternalproxy">0</property>
  <property name="kdenlive:docproperties.enableproxy">1</property>
  <property name="kdenlive:docproperties.externalproxyparams">./;;.LRV;./;;.MP4</property>
  <property name="kdenlive:docproperties.generateimageproxy">0</property>
  <property name="kdenlive:docproperties.generateproxy">0</property>
  <property name="kdenlive:docproperties.guidesCategories">[
    {
        "color": "#9b59b6",
        "comment": "Category 1",
        "index": 0
    },
    {
        "color": "#3daee9",
        "comment": "Category 2",
        "index": 1
    },
    {
        "color": "#1abc9c",
        "comment": "Category 3",
        "index": 2
    },
    {
        "color": "#1cdc9a",
        "comment": "Category 4",
        "index": 3
    },
    {
        "color": "#c9ce3b",
        "comment": "Category 5",
        "index": 4
    },
    {
        "color": "#fdbc4b",
        "comment": "Category 6",
        "index": 5
    },
    {
        "color": "#f39c1f",
        "comment": "Category 7",
        "index": 6
    },
    {
        "color": "#f47750",
        "comment": "Category 8",
        "index": 7
    },
    {
        "color": "#da4453",
        "comment": "Category 9",
        "index": 8
    }
]
</property>
  <property name="kdenlive:docproperties.kdenliveversion">25.08.1</property>
  <property name="kdenlive:docproperties.opensequences">{7bd582c1-515f-4a8e-b141-e2e302ef6524}</property>
  <property name="kdenlive:docproperties.previewextension"/>
  <property name="kdenlive:docproperties.previewparameters"/>
  <property name="kdenlive:docproperties.profile">atsc_720p_30</property>
  <property name="kdenlive:docproperties.proxyextension"/>
  <property name="kdenlive:docproperties.proxyimageminsize">2000</property>
  <property name="kdenlive:docproperties.proxyimagesize">800</property>
  <property name="kdenlive:docproperties.proxyminsize">1000</property>
  <property name="kdenlive:docproperties.proxyparams"/>
  <property name="kdenlive:docproperties.proxyresize">640</property>
  <property name="kdenlive:docproperties.seekOffset">30000</property>
  <property name="kdenlive:docproperties.sessionid">{e75168cf-4e23-42f9-9bb4-c92dd28ea074}</property>
  <property name="kdenlive:docproperties.uuid">{7bd582c1-515f-4a8e-b141-e2e302ef6524}</property>
  <property name="kdenlive:docproperties.version">1.1</property>
  <property name="kdenlive:expandedFolders"/>
  <property name="kdenlive:binZoom">2</property>
  <property name="kdenlive:extraBins">project_bin:-1:0</property>
  <property name="kdenlive:documentnotes"/>
  <property name="kdenlive:documentnotesversion">2</property>
  <property name="kdenlive:docproperties.rendercategory">Generic (HD for web, mobile devices...)</property>
  <property name="kdenlive:docproperties.rendercustomquality">-1</property>
  <property name="kdenlive:docproperties.renderendguide">-1</property>
  <property name="kdenlive:docproperties.renderexportaudio">0</property>
  <property name="kdenlive:docproperties.renderfullcolorrange">0</property>
  <property name="kdenlive:docproperties.rendermode">0</property>
  <property name="kdenlive:docproperties.renderplay">0</property>
  <property name="kdenlive:docproperties.renderpreview">0</property>
  <property name="kdenlive:docproperties.renderprofile">MP4-H264/AAC</property>
  <property name="kdenlive:docproperties.renderrescale">0</property>
  <property name="kdenlive:docproperties.renderrescaleheight">360</property>
  <property name="kdenlive:docproperties.renderrescalewidth">640</property>
  <property name="kdenlive:docproperties.renderspeed">6</property>
  <property name="kdenlive:docproperties.renderstartguide">-1</property>
  <property name="kdenlive:docproperties.renderstemaudio">0</property>
  <property name="kdenlive:docproperties.rendertcoverlay">0</property>
  <property name="kdenlive:docproperties.rendertctype">-1</property>
  <property name="kdenlive:docproperties.rendertwopass">0</property>
  <property name="kdenlive:docproperties.renderurl">reference/qtblend-media.mp4</property>
  <property name="xml_retain">1</property>
  <entry in="00:00:00.000" out="00:00:02.967" producer="chain3"/>
  <entry in="00:00:00.000" out="00:00:02.967" producer="chain2"/>
  <entry in="00:00:00.000" out="00:00:04.967" producer="producer2"/>
  <entry in="00:00:00.000" out="00:00:13.267" producer="producer1"/>
  <entry in="00:00:00.000" out="00:00:08.967" producer="tractor4"/>
 </playlist>
 <tractor id="tractor5" in="00:00:00.000" out="00:00:04.467">
  <property name="kdenlive:projectTractor">1</property>
  <track in="00:00:00.000" out="00:00:04.467" producer="tractor4"/>
 </tractor>
</mlt>
